<?xml version="1.0" encoding="UTF-8" standalone="no"?>
<svg
   xmlns:dc="http://purl.org/dc/elements/1.1/"
   xmlns:cc="http://creativecommons.org/ns#"
   xmlns:rdf="http://www.w3.org/1999/02/22-rdf-syntax-ns#"
   xmlns:svg="http://www.w3.org/2000/svg"
   xmlns="http://www.w3.org/2000/svg"
   xmlns:sodipodi="http://sodipodi.sourceforge.net/DTD/sodipodi-0.dtd"
   xmlns:inkscape="http://www.inkscape.org/namespaces/inkscape"
   viewBox="0 0 50 50"
   version="1.1"
   id="svg4"
   sodipodi:docname="cleaningon.svg"
   inkscape:version="0.92.3 (2405546, 2018-03-11)">
  <metadata
     id="metadata10">
    <rdf:RDF>
      <cc:Work
         rdf:about="">
        <dc:format>image/svg+xml</dc:format>
        <dc:type
           rdf:resource="http://purl.org/dc/dcmitype/StillImage" />
        <dc:title></dc:title>
      </cc:Work>
    </rdf:RDF>
  </metadata>
  <defs
     id="defs8" />
  <sodipodi:namedview
     pagecolor="#ffffff"
     bordercolor="#666666"
     borderopacity="1"
     objecttolerance="10"
     gridtolerance="10"
     guidetolerance="10"
     inkscape:pageopacity="0"
     inkscape:pageshadow="2"
     inkscape:window-width="1920"
     inkscape:window-height="1017"
     id="namedview6"
     showgrid="false"
     inkscape:zoom="4.72"
     inkscape:cx="25"
     inkscape:cy="25"
     inkscape:window-x="-8"
     inkscape:window-y="-8"
     inkscape:window-maximized="1"
     inkscape:current-layer="svg4" />
  <path
     style="text-indent:0;text-align:start;line-height:normal;text-transform:none;block-progression:tb;-inkscape-font-specification:Bitstream Vera Sans;fill:#008000;fill-opacity:0.78431374"
     d="M 24.90625 1.96875 A 1.0001 1.0001 0 0 0 24.78125 2 A 1.0001 1.0001 0 0 0 24 3 L 24 23.4375 C 22.748785 17.579663 21.225275 13.209264 19.90625 10.15625 C 18.208355 6.2263041 16.78125 4.375 16.78125 4.375 A 1.0001 1.0001 0 0 0 15.8125 4 A 1.0001 1.0001 0 0 0 15.21875 5.625 C 15.21875 5.625 16.433145 7.1661959 18.0625 10.9375 C 19.127706 13.403024 20.35276 16.81943 21.4375 21.25 C 17.072163 12.464196 9.5 8.125 9.5 8.125 A 1.0001 1.0001 0 0 0 8.8125 8 A 1.0001 1.0001 0 0 0 8.5 9.875 C 8.5 9.875 15.832855 14.100515 19.875 22.5625 C 14.540174 15.619546 5.28125 13.03125 5.28125 13.03125 A 1.0001 1.0001 0 0 0 4.875 13 A 1.0001 1.0001 0 0 0 4.78125 13 A 1.0001 1.0001 0 0 0 4.71875 14.96875 C 4.71875 14.96875 14.360742 17.860735 19.03125 24.875 C 14.208304 19.986213 8.0739631 19.080935 4.9375 18.96875 C 3.674033 18.923558 2.90625 19 2.90625 19 A 1.0043849 1.0043849 0 0 0 3.09375 21 C 3.09375 21 10.6339 20.165559 16.625 25.34375 C 13.821493 24.300546 10.970189 24.025459 8.53125 24.0625 C 4.5988083 24.12222 1.71875 25.03125 1.71875 25.03125 A 1.0087508 1.0087508 0 1 0 2.28125 26.96875 C 2.28125 26.96875 12.693482 23.824275 20.09375 29.5625 A 1.0001 1.0001 0 0 0 20 30 C 20 31.585874 20.845282 32.900779 22 33.8125 L 22 37.25 C 22 39.138588 21.802467 40.999977 21.21875 42.71875 C 21.0121 43.326624 20.941761 44.02975 21.0625 44.71875 C 21.349597 46.360075 22.635607 47.651006 24.28125 47.9375 C 26.759173 48.367931 29 46.430927 29 44 C 29 43.607825 28.952998 43.236462 28.84375 42.875 C 28.38227 41.334109 28 39.844047 28 38.375 L 28 33.8125 C 29.154718 32.900779 30 31.585874 30 30 A 1.0001 1.0001 0 0 0 29.90625 29.5625 C 37.306659 23.825091 47.71875 26.96875 47.71875 26.96875 A 1.0087508 1.0087508 0 1 0 48.28125 25.03125 C 48.28125 25.03125 45.401192 24.122224 41.46875 24.0625 C 39.029811 24.025461 36.178507 24.300547 33.375 25.34375 C 39.3661 20.165559 46.90625 21 46.90625 21 A 1.0043849 1.0043849 0 0 0 47.09375 19 C 47.09375 19 46.325967 18.92356 45.0625 18.96875 C 41.926037 19.080935 35.791696 19.986213 30.96875 24.875 C 35.639258 17.860735 45.28125 14.96875 45.28125 14.96875 A 1.0077822 1.0077822 0 0 0 45.03125 12.96875 A 1.0051139 1.0051139 0 0 0 44.875 13 A 1.0001 1.0001 0 0 0 44.71875 13.03125 C 44.71875 13.03125 35.459826 15.619546 30.125 22.5625 C 34.167145 14.100515 41.5 9.875 41.5 9.875 A 1.0001 1.0001 0 0 0 40.84375 8 A 1.0001 1.0001 0 0 0 40.5 8.125 C 40.5 8.125 32.927837 12.464196 28.5625 21.25 C 29.64724 16.81943 30.872294 13.403024 31.9375 10.9375 C 33.566855 7.1661959 34.78125 5.625 34.78125 5.625 A 1.0001 1.0001 0 0 0 33.84375 4 A 1.0001 1.0001 0 0 0 33.21875 4.375 C 33.21875 4.375 31.791645 6.2263041 30.09375 10.15625 C 28.774725 13.209264 27.251215 17.579663 26 23.4375 L 26 3 A 1.0001 1.0001 0 0 0 24.90625 1.96875 z M 24.5 29.875 A 1.0001 1.0001 0 0 0 25.5 29.875 A 1.0121334 1.0121334 0 0 0 26.34375 29.9375 A 1.0001 1.0001 0 0 0 27.59375 29.90625 A 1.0004882 1.0004882 0 0 0 28 30 C 28 31.111845 27.400303 32.069896 26.5 32.59375 L 26 32.875 L 26 33.4375 L 26 38.375 C 26 40.175953 26.42973 41.846391 26.90625 43.4375 C 26.959002 43.612038 27 43.802175 27 44 C 27 45.235073 25.935077 46.196319 24.625 45.96875 C 23.846643 45.833244 23.168153 45.157675 23.03125 44.375 C 22.96799 44.014 22.9924 43.673126 23.09375 43.375 C 23.772033 41.377773 24 39.283412 24 37.25 L 24 33.4375 L 24 32.875 L 23.5 32.59375 C 22.599697 32.069896 22 31.111845 22 30 A 1.0004882 1.0004882 0 0 0 22.375 29.90625 A 1.0001 1.0001 0 0 0 22.40625 29.90625 A 1.0001 1.0001 0 0 0 23.625 29.9375 A 1.0121334 1.0121334 0 0 0 24.5 29.875 z"
     id="path2" />
</svg>
