<?xml version="1.0" encoding="UTF-8" standalone="no"?>
<svg
   xmlns:dc="http://purl.org/dc/elements/1.1/"
   xmlns:cc="http://creativecommons.org/ns#"
   xmlns:rdf="http://www.w3.org/1999/02/22-rdf-syntax-ns#"
   xmlns:svg="http://www.w3.org/2000/svg"
   xmlns="http://www.w3.org/2000/svg"
   xmlns:sodipodi="http://sodipodi.sourceforge.net/DTD/sodipodi-0.dtd"
   xmlns:inkscape="http://www.inkscape.org/namespaces/inkscape"
   viewBox="-280 372 50 50"
   version="1.1"
   id="svg4"
   sodipodi:docname="gueston.svg"
   inkscape:version="0.92.3 (2405546, 2018-03-11)">
  <metadata
     id="metadata10">
    <rdf:RDF>
      <cc:Work
         rdf:about="">
        <dc:format>image/svg+xml</dc:format>
        <dc:type
           rdf:resource="http://purl.org/dc/dcmitype/StillImage" />
        <dc:title></dc:title>
      </cc:Work>
    </rdf:RDF>
  </metadata>
  <defs
     id="defs8" />
  <sodipodi:namedview
     pagecolor="#ffffff"
     bordercolor="#666666"
     borderopacity="1"
     objecttolerance="10"
     gridtolerance="10"
     guidetolerance="10"
     inkscape:pageopacity="0"
     inkscape:pageshadow="2"
     inkscape:window-width="1920"
     inkscape:window-height="1017"
     id="namedview6"
     showgrid="false"
     inkscape:zoom="4.72"
     inkscape:cx="25"
     inkscape:cy="25"
     inkscape:window-x="-8"
     inkscape:window-y="-8"
     inkscape:window-maximized="1"
     inkscape:current-layer="svg4" />
  <path
     style="line-height:normal;text-indent:0;text-align:start;text-decoration-line:none;text-decoration-style:solid;text-decoration-color:#000;text-transform:none;block-progression:tb;isolation:auto;mix-blend-mode:normal;fill:#008000;fill-opacity:0.78431374"
     d="M 25.876953 3.3007812 C 21.184533 3.4062313 18.209514 5.3290619 16.933594 8.2636719 C 15.714524 11.067542 15.981479 14.578077 16.855469 18.248047 C 16.393609 18.795227 16.007846 19.535564 16.103516 20.683594 L 16.105469 20.708984 L 16.109375 20.734375 C 16.275815 21.954955 16.613608 22.821641 17.080078 23.431641 C 17.307328 23.728821 17.636289 23.739107 17.917969 23.904297 C 18.072459 24.959207 18.354253 26.020611 18.751953 26.900391 C 18.978013 27.400461 19.221276 27.847199 19.478516 28.224609 C 19.595706 28.396549 19.772751 28.508467 19.900391 28.654297 L 19.900391 32.269531 C 19.305692 33.664437 17.316626 34.470811 15.007812 35.394531 C 11.143813 36.940531 6.334 38.864359 6 44.943359 L 5.9414062 45.998047 L 46.054688 45.998047 L 45.998047 44.945312 C 45.664047 38.855313 40.831266 36.932719 36.947266 35.386719 C 34.63145 34.46602 32.63462 33.660509 32 32.267578 L 32 28.654297 C 32.12764 28.508467 32.304675 28.396549 32.421875 28.224609 C 32.679105 27.847199 32.922377 27.400461 33.148438 26.900391 C 33.542988 26.027591 33.818399 24.973974 33.974609 23.927734 C 34.292469 23.764514 34.647801 23.754291 34.894531 23.431641 C 35.376041 22.801981 35.683422 21.917926 35.794922 20.691406 L 35.796875 20.6875 L 35.796875 20.683594 C 35.885075 19.624624 35.559244 18.868772 35.083984 18.289062 C 35.605324 16.687532 36.220524 14.136489 36.021484 11.511719 C 35.912524 10.074809 35.555982 8.6347263 34.701172 7.4414062 C 33.922602 6.3545062 32.657026 5.5870362 31.066406 5.2539062 C 30.003466 3.8595762 28.092031 3.3007812 25.900391 3.3007812 L 25.888672 3.3007812 L 25.876953 3.3007812 z M 25.900391 5.3007812 L 25.902344 5.3007812 C 27.919194 5.3012412 29.218839 5.8871456 29.636719 6.6035156 L 29.880859 7.0234375 L 30.361328 7.0898438 C 31.734568 7.2829638 32.516529 7.8269188 33.074219 8.6054688 C 33.631909 9.3840187 33.936304 10.463473 34.027344 11.664062 C 34.209424 14.065243 33.515734 16.884093 33.058594 18.164062 L 32.759766 18.998047 L 33.552734 19.394531 C 33.416084 19.326231 33.877154 19.624558 33.802734 20.517578 C 33.713234 21.482508 33.472418 21.997447 33.304688 22.216797 C 33.136188 22.437137 33.066279 22.400391 33.099609 22.400391 L 32.191406 22.400391 L 32.105469 23.304688 C 32.019969 24.202567 31.699052 25.251322 31.326172 26.076172 C 31.139732 26.488602 30.940421 26.846936 30.769531 27.097656 C 30.598641 27.348366 30.411746 27.484301 30.503906 27.431641 L 30 27.71875 L 30 32.494141 C 29.999489 32.495606 29.99834 32.496581 29.998047 32.498047 C 29.980047 32.871047 28.534047 33.998047 25.998047 33.998047 C 23.509047 33.998047 21.998047 32.956047 21.998047 32.498047 C 21.998047 32.347123 21.960136 32.20828 21.900391 32.080078 L 21.900391 27.71875 L 21.396484 27.431641 C 21.488684 27.484341 21.301779 27.348336 21.130859 27.097656 C 20.959969 26.846936 20.760659 26.488602 20.574219 26.076172 C 20.201339 25.251322 19.880432 24.202567 19.794922 23.304688 L 19.708984 22.400391 L 18.800781 22.400391 C 18.950781 22.400391 18.853482 22.456787 18.669922 22.216797 C 18.489652 21.981057 18.237143 21.442624 18.101562 20.496094 C 18.053162 19.688484 18.537588 19.277021 18.455078 19.332031 L 19.042969 18.939453 L 18.869141 18.253906 C 17.946291 14.611056 17.793488 11.300937 18.767578 9.0605469 C 19.739768 6.8245069 21.709651 5.4003212 25.900391 5.3007812 z"
     transform="translate(-280 372)"
     color="#000"
     font-weight="400"
     font-family="sans-serif"
     white-space="normal"
     overflow="visible"
     id="path2" />
</svg>
