<?xml version="1.0" encoding="UTF-8" standalone="no"?>
<svg
   xmlns:dc="http://purl.org/dc/elements/1.1/"
   xmlns:cc="http://creativecommons.org/ns#"
   xmlns:rdf="http://www.w3.org/1999/02/22-rdf-syntax-ns#"
   xmlns:svg="http://www.w3.org/2000/svg"
   xmlns="http://www.w3.org/2000/svg"
   xmlns:sodipodi="http://sodipodi.sourceforge.net/DTD/sodipodi-0.dtd"
   xmlns:inkscape="http://www.inkscape.org/namespaces/inkscape"
   viewBox="0 0 60 60"
   version="1.1"
   id="svg4"
   sodipodi:docname="door_open.svg"
   inkscape:version="0.92.3 (2405546, 2018-03-11)"
   width="60"
   height="60">
  <metadata
     id="metadata10">
    <rdf:RDF>
      <cc:Work
         rdf:about="">
        <dc:format>image/svg+xml</dc:format>
        <dc:type
           rdf:resource="http://purl.org/dc/dcmitype/StillImage" />
        <dc:title></dc:title>
      </cc:Work>
    </rdf:RDF>
  </metadata>
  <defs
     id="defs8" />
  <sodipodi:namedview
     pagecolor="#ffffff"
     bordercolor="#666666"
     borderopacity="1"
     objecttolerance="10"
     gridtolerance="10"
     guidetolerance="10"
     inkscape:pageopacity="0"
     inkscape:pageshadow="2"
     inkscape:window-width="1920"
     inkscape:window-height="1017"
     id="namedview6"
     showgrid="false"
     inkscape:zoom="4.72"
     inkscape:cx="-43.855932"
     inkscape:cy="25"
     inkscape:window-x="-8"
     inkscape:window-y="-8"
     inkscape:window-maximized="1"
     inkscape:current-layer="svg4" />
  <path
     style="line-height:normal;font-family:Sans;-inkscape-font-specification:Sans;text-indent:0;text-align:start;text-transform:none;overflow:visible;fill:#c80000;fill-opacity:0.78431373"
     d="m 31.6875,1.9491525 -16,5 c -0.4,0.2 -0.6875,0.6 -0.6875,1 V 46.949153 c 0,0.5 0.3125,0.9 0.8125,1 l 16,4 H 32 c 0.2,0 0.39375,-0.0875 0.59375,-0.1875 0.2,-0.2 0.40625,-0.5125 0.40625,-0.8125 V 2.9491525 c 0,-0.3 -0.20625,-0.6125 -0.40625,-0.8125 -0.3,-0.2 -0.60625,-0.1875 -0.90625,-0.1875 z m 3.3125,4 v 2 h 8 V 45.949153 h -8 v 2 h 9 a 1.0001,1.0001 0 0 0 1,-1 V 6.9491525 a 1.0001,1.0001 0 0 0 -1,-1 z M 29,25.949153 c 0.6,0 1,0.7 1,1.5 0,0.8 -0.4,1.5 -1,1.5 -0.6,0 -1,-0.7 -1,-1.5 0,-0.8 0.4,-1.5 1,-1.5 z"
     overflow="visible"
     id="path2"
     inkscape:connector-curvature="0" />
</svg>
