<?xml version="1.0" encoding="UTF-8" standalone="no"?>
<svg
   xmlns:dc="http://purl.org/dc/elements/1.1/"
   xmlns:cc="http://creativecommons.org/ns#"
   xmlns:rdf="http://www.w3.org/1999/02/22-rdf-syntax-ns#"
   xmlns:svg="http://www.w3.org/2000/svg"
   xmlns="http://www.w3.org/2000/svg"
   xmlns:sodipodi="http://sodipodi.sourceforge.net/DTD/sodipodi-0.dtd"
   xmlns:inkscape="http://www.inkscape.org/namespaces/inkscape"
   viewBox="0 0 80 80"
   version="1.1"
   id="svg4"
   sodipodi:docname="vacationon.svg"
   inkscape:version="0.92.3 (2405546, 2018-03-11)">
  <metadata
     id="metadata10">
    <rdf:RDF>
      <cc:Work
         rdf:about="">
        <dc:format>image/svg+xml</dc:format>
        <dc:type
           rdf:resource="http://purl.org/dc/dcmitype/StillImage" />
        <dc:title></dc:title>
      </cc:Work>
    </rdf:RDF>
  </metadata>
  <defs
     id="defs8" />
  <sodipodi:namedview
     pagecolor="#ffffff"
     bordercolor="#666666"
     borderopacity="1"
     objecttolerance="10"
     gridtolerance="10"
     guidetolerance="10"
     inkscape:pageopacity="0"
     inkscape:pageshadow="2"
     inkscape:window-width="1920"
     inkscape:window-height="1017"
     id="namedview6"
     showgrid="false"
     inkscape:zoom="2.95"
     inkscape:cx="40"
     inkscape:cy="40"
     inkscape:window-x="-8"
     inkscape:window-y="-8"
     inkscape:window-maximized="1"
     inkscape:current-layer="svg4" />
  <path
     d="M 40 9 C 36.145666 9 33 12.145666 33 16 L 33 32.453125 L 8 48.453125 L 8 54.171875 L 33 50.173828 L 33 58.519531 L 23 66.519531 L 23 71.220703 L 34.099609 69 L 45.900391 69 L 57 71.220703 L 57 66.519531 L 47 58.519531 L 47 50.173828 L 72 54.171875 L 72 53 L 72 48.453125 L 47 32.453125 L 47 16 C 47 12.145666 43.854334 9 40 9 z M 40 11 C 42.773666 11 45 13.226334 45 16 L 45 33.546875 L 70 49.546875 L 70 51.826172 L 45 47.828125 L 45 59.480469 L 55 67.480469 L 55 68.78125 L 46.984375 67.177734 A 1 1 0 0 0 47 67 A 1 1 0 0 0 46 66 A 1 1 0 0 0 45 67 L 35 67 A 1 1 0 0 0 34 66 A 1 1 0 0 0 33 67 A 1 1 0 0 0 33.015625 67.177734 L 25 68.78125 L 25 67.480469 L 35 59.480469 L 35 47.828125 L 10 51.826172 L 10 49.546875 L 35 33.546875 L 35 16 C 35 13.226334 37.226334 11 40 11 z M 38 15 A 1 1 0 0 0 37 16 A 1 1 0 0 0 38 17 A 1 1 0 0 0 39 16 A 1 1 0 0 0 38 15 z M 42 15 A 1 1 0 0 0 41 16 A 1 1 0 0 0 42 17 A 1 1 0 0 0 43 16 A 1 1 0 0 0 42 15 z M 34 36 A 1 1 0 0 0 33 37 A 1 1 0 0 0 34 38 A 1 1 0 0 0 35 37 A 1 1 0 0 0 34 36 z M 46 36 A 1 1 0 0 0 45 37 A 1 1 0 0 0 46 38 A 1 1 0 0 0 47 37 A 1 1 0 0 0 46 36 z M 34 40 A 1 1 0 0 0 33 41 A 1 1 0 0 0 34 42 A 1 1 0 0 0 35 41 A 1 1 0 0 0 34 40 z M 46 40 A 1 1 0 0 0 45 41 A 1 1 0 0 0 46 42 A 1 1 0 0 0 47 41 A 1 1 0 0 0 46 40 z M 34 44 A 1 1 0 0 0 33 45 A 1 1 0 0 0 34 46 A 1 1 0 0 0 35 45 A 1 1 0 0 0 34 44 z M 46 44 A 1 1 0 0 0 45 45 A 1 1 0 0 0 46 46 A 1 1 0 0 0 47 45 A 1 1 0 0 0 46 44 z M 34 62 A 1 1 0 0 0 33 63 A 1 1 0 0 0 34 64 A 1 1 0 0 0 35 63 A 1 1 0 0 0 34 62 z M 46 62 A 1 1 0 0 0 45 63 A 1 1 0 0 0 46 64 A 1 1 0 0 0 47 63 A 1 1 0 0 0 46 62 z"
     id="path2"
     style="fill:#008000;fill-opacity:0.78431374" />
</svg>
