<?xml version="1.0" encoding="UTF-8" standalone="no"?>
<svg
   xmlns:dc="http://purl.org/dc/elements/1.1/"
   xmlns:cc="http://creativecommons.org/ns#"
   xmlns:rdf="http://www.w3.org/1999/02/22-rdf-syntax-ns#"
   xmlns:svg="http://www.w3.org/2000/svg"
   xmlns="http://www.w3.org/2000/svg"
   xmlns:sodipodi="http://sodipodi.sourceforge.net/DTD/sodipodi-0.dtd"
   xmlns:inkscape="http://www.inkscape.org/namespaces/inkscape"
   viewBox="0 0 50 50"
   version="1.1"
   id="svg4"
   sodipodi:docname="wfhon.svg"
   inkscape:version="0.92.3 (2405546, 2018-03-11)">
  <metadata
     id="metadata10">
    <rdf:RDF>
      <cc:Work
         rdf:about="">
        <dc:format>image/svg+xml</dc:format>
        <dc:type
           rdf:resource="http://purl.org/dc/dcmitype/StillImage" />
        <dc:title></dc:title>
      </cc:Work>
    </rdf:RDF>
  </metadata>
  <defs
     id="defs8" />
  <sodipodi:namedview
     pagecolor="#ffffff"
     bordercolor="#666666"
     borderopacity="1"
     objecttolerance="10"
     gridtolerance="10"
     guidetolerance="10"
     inkscape:pageopacity="0"
     inkscape:pageshadow="2"
     inkscape:window-width="1920"
     inkscape:window-height="1017"
     id="namedview6"
     showgrid="false"
     inkscape:zoom="4.72"
     inkscape:cx="25"
     inkscape:cy="25"
     inkscape:window-x="-8"
     inkscape:window-y="-8"
     inkscape:window-maximized="1"
     inkscape:current-layer="svg4" />
  <path
     style="line-height:normal;text-indent:0;text-align:start;text-decoration-line:none;text-decoration-style:solid;text-decoration-color:#000;text-transform:none;block-progression:tb;isolation:auto;mix-blend-mode:normal;fill:#008000;fill-opacity:0.78431374"
     d="M 7 2 L 7 7 L 2 7 L 2 46 L 14 46 L 14 44 L 4 44 L 4 9 L 9 9 L 9 4 L 29 4 L 29 7 L 11 7 L 11 9 L 30 9 L 34 9 L 34 20 L 36 20 L 36 7 L 31 7 L 31 2 L 7 2 z M 8 12 L 8 14 L 12 14 L 12 12 L 8 12 z M 17 12 L 17 14 L 21 14 L 21 12 L 17 12 z M 26 12 L 26 14 L 30 14 L 30 12 L 26 12 z M 8 17 L 8 19 L 12 19 L 12 17 L 8 17 z M 17 17 L 17 19 L 21 19 L 21 17 L 17 17 z M 26 17 L 26 19 L 30 19 L 30 17 L 26 17 z M 29 20 C 25.740611 20 23.329001 21.323036 22.074219 23.294922 C 20.928679 25.095133 20.87419 27.338447 21.595703 29.431641 C 21.514443 29.566909 21.401005 29.680505 21.330078 29.839844 C 21.172758 30.193267 21.03369 30.591676 21.054688 31.099609 L 21.054688 31.101562 C 21.108397 32.380657 21.85058 33.047536 22.398438 33.421875 C 22.630018 34.641033 23.207274 35.659784 24 36.392578 L 24 38.533203 C 23.825644 38.953502 23.471236 39.306758 22.796875 39.679688 C 22.089446 40.070903 21.131172 40.435714 20.144531 40.917969 C 19.15789 41.400224 18.125605 42.01279 17.322266 42.990234 C 16.518926 43.967631 16 45.308611 16 47 L 16 48 L 38.916016 48 L 40 48 L 48.052734 48 L 47.992188 46.941406 C 47.900747 45.363863 47.315382 44.118984 46.490234 43.222656 C 45.665087 42.326328 44.645655 41.76583 43.679688 41.320312 C 42.71372 40.874797 41.784755 40.535126 41.107422 40.173828 C 40.463878 39.830555 40.149166 39.512669 40 39.160156 L 40 37.472656 C 40.596993 36.609901 40.859632 35.617391 40.9375 34.685547 C 41.412897 34.264828 41.970565 33.615709 42.123047 32.457031 C 42.23216 31.62626 42.019151 30.99748 41.695312 30.462891 C 42.142907 29.278573 42.328194 27.843473 41.933594 26.416016 C 41.705233 25.589924 41.278805 24.778032 40.564453 24.169922 C 40.002525 23.691567 39.23658 23.425735 38.390625 23.308594 L 37.751953 22 L 37.126953 22 C 36.0962 22 35.084781 22.236457 34.214844 22.580078 C 33.872026 22.715489 33.560108 22.86377 33.267578 23.027344 C 33.103265 22.810515 32.92161 22.602982 32.712891 22.414062 C 32.105976 21.864725 31.262502 21.550618 30.324219 21.419922 L 29.621094 20 L 29 20 z M 8 22 L 8 24 L 12 24 L 12 22 L 8 22 z M 17 22 L 17 24 L 19.484375 24 L 20.759766 22 L 17 22 z M 28.435547 22.115234 L 29.025391 23.300781 L 29.644531 23.300781 C 30.463712 23.300781 30.970101 23.533533 31.371094 23.896484 C 31.772086 24.259436 32.065626 24.797404 32.238281 25.429688 C 32.583592 26.694252 32.289941 28.340191 32.007812 28.791016 L 31.644531 29.371094 L 32.052734 29.919922 C 32.289967 30.238092 32.441573 30.566638 32.363281 31.007812 C 32.253479 31.626344 32.030967 31.707195 31.589844 32.087891 L 31.257812 32.375 L 31.244141 32.8125 C 31.212391 33.794148 30.872989 34.778861 30.300781 35.337891 L 30 35.632812 L 30 38.988281 L 30.058594 39.152344 C 30.452506 40.249619 31.337742 40.933839 32.234375 41.429688 C 33.131008 41.925534 34.101954 42.287349 34.976562 42.714844 C 35.851171 43.142339 36.609592 43.623147 37.132812 44.259766 C 37.49483 44.700241 37.717898 45.290171 37.853516 46 L 18.146484 46 C 18.282102 45.290171 18.505168 44.700241 18.867188 44.259766 C 19.39041 43.623147 20.148829 43.142339 21.023438 42.714844 C 21.898045 42.287349 22.868992 41.925534 23.765625 41.429688 C 24.662258 40.933839 25.547494 40.249619 25.941406 39.152344 L 26 38.988281 L 26 35.523438 L 25.5625 35.226562 C 25.101461 34.912374 24.343728 33.769345 24.238281 32.742188 L 24.181641 32.189453 L 23.681641 31.945312 C 23.399621 31.80778 23.083613 31.752996 23.052734 31.017578 C 23.052732 31.017511 23.082274 30.824874 23.158203 30.654297 C 23.234133 30.48372 23.376637 30.305003 23.333984 30.347656 L 23.814453 29.867188 L 23.542969 29.242188 C 22.798205 27.523734 22.899251 25.72255 23.761719 24.367188 C 24.55095 23.126912 26.097187 22.268148 28.435547 22.115234 z M 36.558594 24.115234 L 37.087891 25.199219 L 37.712891 25.199219 C 38.470704 25.199219 38.923774 25.398735 39.267578 25.691406 C 39.611382 25.984078 39.858095 26.414685 40.005859 26.949219 C 40.301387 28.018286 40.084289 29.480186 39.746094 30.146484 L 39.417969 30.794922 L 39.931641 31.306641 C 39.865731 31.240731 40.194414 31.785774 40.140625 32.195312 C 40.011403 33.177239 39.872698 33.111449 39.449219 33.390625 L 39.029297 33.667969 L 39.001953 34.169922 C 38.952713 35.044314 38.516987 36.350046 38.283203 36.589844 L 38 36.880859 L 38 39.619141 L 38.058594 39.783203 C 38.436212 40.834271 39.298224 41.47461 40.166016 41.9375 C 41.033807 42.40039 41.979217 42.737985 42.84375 43.136719 C 43.708283 43.535452 44.476054 43.985812 45.019531 44.576172 C 45.366123 44.952661 45.600686 45.434797 45.771484 46 L 39.921875 46 C 39.759049 44.775901 39.314144 43.76457 38.677734 42.990234 C 37.874395 42.01279 36.84211 41.400224 35.855469 40.917969 C 34.868828 40.435714 33.910554 40.070903 33.203125 39.679688 C 32.528764 39.306759 32.174356 38.953502 32 38.533203 L 32 36.294922 C 32.691363 35.422221 33.055228 34.392519 33.15625 33.34375 C 33.54285 33.001993 34.143934 32.416997 34.332031 31.357422 C 34.485435 30.492985 34.225968 29.786153 33.90625 29.210938 C 34.435917 27.987088 34.593889 26.462109 34.167969 24.902344 C 34.163506 24.886001 34.156938 24.869849 34.152344 24.853516 C 34.366575 24.716906 34.639265 24.563836 34.949219 24.441406 C 35.435904 24.249168 36.008002 24.179946 36.558594 24.115234 z M 8 27 L 8 29 L 12 29 L 12 27 L 8 27 z M 17 27 L 17 29 L 19.755859 29 L 19.396484 27 L 17 27 z M 8 32 L 8 34 L 12 34 L 12 32 L 8 32 z M 17 32 L 17 34 L 20.449219 34 L 19.615234 32 L 17 32 z M 8 37 L 8 39 L 12 39 L 12 37 L 8 37 z M 17 37 L 17 39 L 21 39 L 21 37 L 17 37 z"
     id="path2" />
</svg>
