<svg xmlns="http://www.w3.org/2000/svg" width="24" height="24" viewBox="0 0 24 24"><g fill="none" fill-rule="evenodd"><path fill="none" d="M0 24h24V0H0z"/><path fill="#CAD4DB" d="M12.932 9.57a.374.374 0 0 1-.265.64.37.37 0 0 1-.265-.11 3.708 3.708 0 0 0-1.488-.898v.001a3.738 3.738 0 0 0-1.164-.202c-1.474 0-2.734.86-3.343 2.1.404.157.776.388 1.089.7a.374.374 0 0 1 0 .53.373.373 0 0 1-.53.002 2.398 2.398 0 0 0-.842-.54l.014.004a2.421 2.421 0 0 0-.888-.173 2.437 2.437 0 0 0 0 4.875h10.5a5.25 5.25 0 1 0 0-10.5c-2.17 0-3.64 1.215-4.483 2.518 0 0 .83.232 1.665 1.052"/><path fill="#FDD737" d="M5.661 10.902a4.493 4.493 0 0 1 4.09-2.65c.248 0 .5.023.76.072.22-.398.492-.756.791-1.088a3.916 3.916 0 0 0-3.423-2.01 3.942 3.942 0 0 0-3.938 3.938c0 .651.175 1.274.473 1.836.268-.074.545-.126.836-.126.138 0 .274.01.411.028M7.879 4.29a.375.375 0 0 1-.375-.376V2.04a.375.375 0 0 1 .75 0v1.875a.375.375 0 0 1-.375.375M4.166 5.827a.378.378 0 0 1-.266-.11L2.575 4.391a.375.375 0 0 1 .531-.53l1.326 1.326a.375.375 0 0 1-.266.64M2.629 9.54H.754a.375.375 0 0 1 0-.75h1.875a.375.375 0 0 1 0 .75m8.961-3.713a.378.378 0 0 1-.265-.11.377.377 0 0 1 0-.53l1.327-1.326a.375.375 0 1 1 .53.53l-1.325 1.326a.378.378 0 0 1-.266.11"/></g></svg>