<svg height="24" viewBox="0 0 24 24" width="24" xmlns="http://www.w3.org/2000/svg"><g fill="none" fill-rule="evenodd"><path d="M0 24h24V0H0z"/><path d="M12 7.5A4.505 4.505 0 0 0 7.5 12c0 2.481 2.019 4.5 4.5 4.5s4.5-2.019 4.5-4.5c0-2.48-2.019-4.5-4.5-4.5m0 9.938a.375.375 0 0 0-.375.375v1.875a.375.375 0 0 0 .75 0v-1.875a.375.375 0 0 0-.375-.375m0-10.875a.375.375 0 0 0 .375-.375V4.313a.375.375 0 0 0-.75 0v1.875c0 .207.168.375.375.375m4.376 9.282a.375.375 0 0 0-.531.53L17.17 17.7a.372.372 0 0 0 .53 0 .374.374 0 0 0 .001-.53l-1.325-1.326zm-8.752-7.69a.376.376 0 0 0 .53 0 .374.374 0 0 0 .001-.53L6.83 6.299a.375.375 0 0 0-.531.53zm12.064 3.47h-1.875a.375.375 0 0 0 0 .75h1.875a.375.375 0 0 0 0-.75M6.563 12a.375.375 0 0 0-.375-.375H4.313a.375.375 0 0 0 0 .75h1.875A.375.375 0 0 0 6.563 12m9.547-3.735a.378.378 0 0 0 .266-.11l1.325-1.326a.375.375 0 0 0-.53-.53l-1.327 1.326a.375.375 0 0 0 .266.64m-8.486 7.58L6.299 17.17a.374.374 0 0 0 .001.53.372.372 0 0 0 .53 0l1.325-1.326a.375.375 0 0 0-.531-.53" fill="#fdd737"/></g></svg>