<svg height="24" viewBox="0 0 24 24" width="24" xmlns="http://www.w3.org/2000/svg"><g fill="none" fill-rule="evenodd"><path d="M0 24h24V0H0z"/><path d="M7.268 23.132a.374.374 0 0 0 .325.562.376.376 0 0 0 .325-.187l3.613-6.258h-.867zm4.684-2.922a.374.374 0 0 0 .325.561.376.376 0 0 0 .325-.187l1.925-3.335h-.866l-1.709 2.96zm-5.997 0a.374.374 0 0 0 .325.561.376.376 0 0 0 .325-.187L8.53 17.25h-.866z" fill="#61b6df"/><path d="M12.932 9.57a.374.374 0 0 1-.265.64.37.37 0 0 1-.265-.11 3.708 3.708 0 0 0-1.488-.898v.001a3.738 3.738 0 0 0-1.164-.202c-1.474 0-2.734.86-3.343 2.1.404.157.776.388 1.089.7a.374.374 0 0 1 0 .53.373.373 0 0 1-.53.002 2.398 2.398 0 0 0-.842-.54l.014.004a2.421 2.421 0 0 0-.888-.173 2.437 2.437 0 0 0 0 4.875h10.5a5.25 5.25 0 1 0 0-10.5c-2.17 0-3.64 1.215-4.483 2.518 0 0 .83.232 1.665 1.052" fill="#879cb2"/></g></svg>