<svg height="24" viewBox="0 0 24 24" width="24" xmlns="http://www.w3.org/2000/svg"><g fill="none" fill-rule="evenodd"><path d="M0 24h24V0H0z"/><path d="M12.932 9.57a.373.373 0 0 1 0 .53.373.373 0 0 1-.53 0 3.722 3.722 0 0 0-1.487-.897 3.743 3.743 0 0 0-1.165-.202c-1.475 0-2.734.86-3.344 2.1a3.17 3.17 0 0 1 1.09.7.376.376 0 0 1-.265.641.374.374 0 0 1-.264-.11 2.42 2.42 0 0 0-.843-.539l.014.004a2.426 2.426 0 0 0-.888-.172 2.438 2.438 0 1 0 0 4.875h10.5a5.25 5.25 0 0 0 0-10.5c-2.169 0-3.64 1.215-4.483 2.518 0 0 .83.232 1.665 1.051" fill="#cad4db"/></g></svg>