<svg xmlns="http://www.w3.org/2000/svg" width="24" height="24" viewBox="0 0 24 24"><g fill="none" fill-rule="evenodd"><path d="M0 24h24V0H0z"/><path d="M12.932 9.57a.374.374 0 0 1-.265.64.37.37 0 0 1-.265-.11 3.708 3.708 0 0 0-1.488-.898v.001a3.738 3.738 0 0 0-1.164-.202c-1.474 0-2.734.86-3.343 2.1.404.157.776.388 1.089.7a.374.374 0 0 1 0 .53.373.373 0 0 1-.53.002 2.398 2.398 0 0 0-.842-.54l.014.004a2.421 2.421 0 0 0-.888-.173 2.437 2.437 0 0 0 0 4.875h10.5a5.25 5.25 0 1 0 0-10.5c-2.17 0-3.64 1.215-4.483 2.518 0 0 .83.232 1.665 1.052m-.277 12.389h-.923l.462-.799a.225.225 0 0 0-.39-.225l-.46.798-.462-.798a.225.225 0 0 0-.39.225l.461.8h-.923a.225.225 0 0 0 0 .45h.923l-.462.8a.226.226 0 0 0 .391.223l.461-.798.46.798a.227.227 0 0 0 .308.083.226.226 0 0 0 .083-.307l-.462-.8h.923a.225.225 0 0 0 0-.45m3.55-2.842h-.922l.461-.799a.226.226 0 0 0-.39-.224l-.46.798-.462-.798a.226.226 0 0 0-.391.224l.461.8h-.922a.225.225 0 0 0 0 .45h.923l-.462.8a.226.226 0 0 0 .391.223l.461-.798.46.798a.227.227 0 0 0 .308.083.226.226 0 0 0 .083-.307l-.462-.8h.923a.225.225 0 0 0 0-.45m-7.099 0h-.922l.461-.799a.226.226 0 0 0-.39-.224l-.46.798-.462-.798a.226.226 0 0 0-.391.224l.461.8h-.922a.225.225 0 0 0 0 .45h.923l-.462.8a.226.226 0 0 0 .391.223l.461-.798.46.798a.227.227 0 0 0 .308.083.226.226 0 0 0 .083-.307l-.462-.8h.923a.225.225 0 0 0 0-.45" fill="#CAD4DB"/></g></svg>