<svg xmlns="http://www.w3.org/2000/svg" width="24" height="24" viewBox="0 0 24 24"><g fill="none" fill-rule="evenodd"><path d="M0 24h24V0H0z"/><path d="M6.587 11.235l-.288-.889.756-.549A.093.093 0 0 0 7 9.628h-.935l-.29-.889a.092.092 0 0 0-.087-.065.094.094 0 0 0-.09.065l-.288.89h-.935a.093.093 0 0 0-.055.168l.755.55-.288.888a.093.093 0 0 0 .034.104.088.088 0 0 0 .055.02c.02 0 .039-.007.055-.02l.757-.549.755.55a.09.09 0 0 0 .11 0 .091.091 0 0 0 .034-.105M9.419 6.15l-.385 1.185a.125.125 0 0 0 .193.14l1.008-.732 1.008.731a.125.125 0 1 0 .193-.139L11.05 6.15l1.008-.733a.126.126 0 0 0 .046-.14.127.127 0 0 0-.12-.086h-1.247l-.383-1.185a.126.126 0 0 0-.24 0L9.73 5.191H8.484a.127.127 0 0 0-.12.086.126.126 0 0 0 .047.14l1.008.733zm8.161 1.551a6.492 6.492 0 0 0-2.258-1.545l-.385-.159a.187.187 0 0 0-.248.235l.137.393a5.789 5.789 0 0 1-1.48 6.096A5.74 5.74 0 0 1 9.383 14.3a5.756 5.756 0 0 1-2.205-.435l-.386-.158a.187.187 0 0 0-.248.235l.137.393c.307.883.785 1.67 1.42 2.34a6.467 6.467 0 0 0 4.74 2.04 6.501 6.501 0 0 0 4.485-1.786 6.48 6.48 0 0 0 2.035-4.56 6.481 6.481 0 0 0-1.78-4.667" fill="#CAD4DB"/></g></svg>